<svg width="256" height="256" viewBox="0 0 256 256" fill="none" xmlns="http://www.w3.org/2000/svg">
<rect width="256" height="256" fill="#188AB0"/>
<path d="M71.4748 99.256C73.1068 99.256 74.8828 99.352 76.8028 99.544C78.7228 99.704 80.5948 100.056 82.4188 100.6L81.9388 105.448C80.5308 105.416 78.8828 105.384 76.9948 105.352C75.1068 105.32 73.2508 105.304 71.4268 105.304C70.5308 105.304 69.7628 105.336 69.1228 105.4C68.5148 105.432 68.0188 105.56 67.6348 105.784C67.2508 105.976 66.9788 106.28 66.8188 106.696C66.6588 107.112 66.5788 107.688 66.5788 108.424C66.5788 109.544 66.8348 110.36 67.3468 110.872C67.8908 111.384 68.8028 111.848 70.0828 112.264L76.4668 114.328C79.1228 115.224 80.9628 116.44 81.9868 117.976C83.0108 119.512 83.5228 121.528 83.5228 124.024C83.5228 125.912 83.2988 127.48 82.8508 128.728C82.4028 129.976 81.6988 130.952 80.7388 131.656C79.7788 132.36 78.5148 132.856 76.9468 133.144C75.3788 133.464 73.4588 133.624 71.1868 133.624C70.0988 133.624 68.5468 133.544 66.5308 133.384C64.5148 133.256 62.2108 132.904 59.6188 132.328L60.0988 127.144C61.9868 127.176 63.6188 127.224 64.9948 127.288C66.4028 127.32 67.6028 127.352 68.5948 127.384C69.5868 127.384 70.4508 127.384 71.1868 127.384C72.4668 127.384 73.4588 127.304 74.1628 127.144C74.8988 126.984 75.4108 126.664 75.6988 126.184C75.9868 125.704 76.1308 125.016 76.1308 124.12C76.1308 123.352 76.0188 122.744 75.7948 122.296C75.6028 121.816 75.2668 121.448 74.7868 121.192C74.3388 120.904 73.7148 120.648 72.9148 120.424L66.1948 118.12C63.6668 117.192 61.8748 115.976 60.8188 114.472C59.7628 112.968 59.2348 110.984 59.2348 108.52C59.2348 106.6 59.4588 105.048 59.9068 103.864C60.3868 102.648 61.1068 101.704 62.0668 101.032C63.0588 100.36 64.3228 99.896 65.8588 99.64C67.4268 99.384 69.2988 99.256 71.4748 99.256ZM118.272 108.664C120.416 108.664 122.048 109.224 123.168 110.344C124.288 111.464 124.848 113.096 124.848 115.24V133H117.792V117.448C117.792 116.456 117.6 115.752 117.216 115.336C116.832 114.888 116.16 114.664 115.2 114.664C114.624 114.664 114.08 114.744 113.568 114.904C113.056 115.064 112.464 115.32 111.792 115.672C111.12 116.024 110.304 116.504 109.344 117.112L108.96 113.176C110.496 111.672 112 110.552 113.472 109.816C114.976 109.048 116.576 108.664 118.272 108.664ZM93.8878 109.288L94.6078 113.992L95.3278 114.616V133H88.2238V109.288H93.8878ZM103.488 108.664C105.6 108.664 107.2 109.224 108.288 110.344C109.408 111.432 109.968 113.064 109.968 115.24V133H103.152V117.448C103.152 116.424 102.928 115.704 102.48 115.288C102.064 114.872 101.408 114.664 100.512 114.664C99.9678 114.664 99.4238 114.744 98.8798 114.904C98.3678 115.032 97.7598 115.272 97.0558 115.624C96.3838 115.976 95.5518 116.472 94.5598 117.112L94.1278 113.176C95.6958 111.672 97.2158 110.552 98.6878 109.816C100.16 109.048 101.76 108.664 103.488 108.664ZM141.737 108.664C145.737 108.664 148.601 109.352 150.329 110.728C152.089 112.072 152.969 114.088 152.969 116.776C153.001 118.952 152.457 120.584 151.337 121.672C150.217 122.728 148.281 123.256 145.529 123.256H132.281V119.272H143.561C144.649 119.272 145.337 119.048 145.625 118.6C145.945 118.12 146.105 117.464 146.105 116.632C146.073 115.512 145.737 114.744 145.097 114.328C144.489 113.88 143.449 113.656 141.977 113.656C140.665 113.656 139.641 113.832 138.905 114.184C138.169 114.536 137.657 115.208 137.369 116.2C137.081 117.192 136.937 118.632 136.937 120.52C136.937 122.504 137.113 124.04 137.465 125.128C137.817 126.184 138.409 126.92 139.241 127.336C140.105 127.752 141.289 127.96 142.793 127.96C143.881 127.96 145.225 127.928 146.825 127.864C148.457 127.768 150.089 127.624 151.721 127.432L152.393 131.8C151.465 132.248 150.409 132.6 149.225 132.856C148.041 133.112 146.825 133.288 145.577 133.384C144.329 133.512 143.129 133.576 141.977 133.576C138.969 133.576 136.537 133.144 134.681 132.28C132.857 131.384 131.529 130.024 130.697 128.2C129.897 126.376 129.497 124.04 129.497 121.192C129.497 118.088 129.913 115.624 130.745 113.8C131.577 111.976 132.889 110.664 134.681 109.864C136.473 109.064 138.825 108.664 141.737 108.664ZM164.751 99.4L164.703 125.416C164.703 126.216 164.943 126.824 165.423 127.24C165.903 127.624 166.607 127.816 167.535 127.816H169.455L170.271 132.616C169.887 132.808 169.343 132.968 168.639 133.096C167.935 133.256 167.215 133.368 166.479 133.432C165.743 133.528 165.119 133.576 164.607 133.576C162.463 133.576 160.767 133.016 159.519 131.896C158.271 130.776 157.647 129.208 157.647 127.192V99.4H164.751ZM184.629 108.664C187.605 108.664 189.989 109.08 191.781 109.912C193.573 110.712 194.853 112.024 195.621 113.848C196.421 115.672 196.821 118.12 196.821 121.192C196.821 124.2 196.421 126.616 195.621 128.44C194.853 130.264 193.573 131.576 191.781 132.376C189.989 133.176 187.605 133.576 184.629 133.576C181.685 133.576 179.301 133.176 177.477 132.376C175.685 131.576 174.389 130.264 173.589 128.44C172.789 126.616 172.389 124.2 172.389 121.192C172.389 118.12 172.789 115.672 173.589 113.848C174.389 112.024 175.685 110.712 177.477 109.912C179.301 109.08 181.685 108.664 184.629 108.664ZM184.629 113.848C183.413 113.848 182.453 114.056 181.749 114.472C181.045 114.888 180.549 115.624 180.261 116.68C179.973 117.736 179.829 119.24 179.829 121.192C179.829 123.112 179.973 124.6 180.261 125.656C180.549 126.712 181.045 127.448 181.749 127.864C182.453 128.248 183.413 128.44 184.629 128.44C185.845 128.44 186.805 128.248 187.509 127.864C188.213 127.448 188.709 126.712 188.997 125.656C189.285 124.6 189.429 123.112 189.429 121.192C189.429 119.24 189.285 117.736 188.997 116.68C188.709 115.624 188.213 114.888 187.509 114.472C186.805 114.056 185.845 113.848 184.629 113.848Z" fill="white"/>
<path d="M101.066 155.024C102.41 155.024 103.482 155.224 104.282 155.624C105.098 156.024 105.682 156.68 106.034 157.592C106.386 158.488 106.562 159.68 106.562 161.168C106.562 162.656 106.386 163.856 106.034 164.768C105.682 165.664 105.098 166.312 104.282 166.712C103.482 167.112 102.41 167.312 101.066 167.312C99.738 167.312 98.666 167.112 97.85 166.712C97.05 166.312 96.466 165.664 96.098 164.768C95.746 163.856 95.57 162.656 95.57 161.168C95.57 159.68 95.746 158.488 96.098 157.592C96.466 156.68 97.05 156.024 97.85 155.624C98.666 155.224 99.738 155.024 101.066 155.024ZM101.066 156.752C100.218 156.752 99.546 156.888 99.05 157.16C98.57 157.416 98.226 157.864 98.018 158.504C97.81 159.144 97.706 160.032 97.706 161.168C97.706 162.304 97.81 163.192 98.018 163.832C98.226 164.472 98.57 164.928 99.05 165.2C99.546 165.456 100.218 165.584 101.066 165.584C101.914 165.584 102.586 165.456 103.082 165.2C103.578 164.928 103.93 164.472 104.138 163.832C104.346 163.192 104.45 162.304 104.45 161.168C104.45 160.032 104.346 159.144 104.138 158.504C103.93 157.864 103.578 157.416 103.082 157.16C102.586 156.888 101.914 156.752 101.066 156.752ZM116.867 155.024C118.979 155.024 120.035 156.096 120.035 158.24V167H117.995V158.816C117.995 158.032 117.867 157.496 117.611 157.208C117.355 156.904 116.923 156.752 116.315 156.752C115.595 156.752 114.875 156.928 114.155 157.28C113.435 157.632 112.579 158.112 111.587 158.72L111.491 157.256C112.403 156.552 113.307 156.008 114.203 155.624C115.099 155.224 115.987 155.024 116.867 155.024ZM111.491 155.312L111.659 157.544L111.803 157.904V167H109.763V155.312H111.491ZM125.772 150.2L125.748 163.784C125.748 164.296 125.884 164.688 126.156 164.96C126.444 165.216 126.844 165.344 127.356 165.344H128.484L128.724 166.904C128.58 166.968 128.372 167.024 128.1 167.072C127.844 167.12 127.572 167.152 127.284 167.168C127.012 167.2 126.78 167.216 126.588 167.216C125.724 167.216 125.028 166.96 124.5 166.448C123.988 165.936 123.732 165.2 123.732 164.24V150.2H125.772ZM132.945 155.312V167H130.929V155.312H132.945ZM132.417 150.344C132.833 150.344 133.041 150.552 133.041 150.968V152.336C133.041 152.752 132.833 152.96 132.417 152.96H131.457C131.041 152.96 130.833 152.752 130.833 152.336V150.968C130.833 150.552 131.041 150.344 131.457 150.344H132.417ZM143.89 155.024C146.002 155.024 147.058 156.096 147.058 158.24V167H145.018V158.816C145.018 158.032 144.89 157.496 144.634 157.208C144.378 156.904 143.946 156.752 143.338 156.752C142.618 156.752 141.898 156.928 141.178 157.28C140.458 157.632 139.602 158.112 138.61 158.72L138.514 157.256C139.426 156.552 140.33 156.008 141.226 155.624C142.122 155.224 143.01 155.024 143.89 155.024ZM138.514 155.312L138.682 157.544L138.826 157.904V167H136.786V155.312H138.514ZM155.531 155.024C157.291 155.024 158.563 155.344 159.347 155.984C160.147 156.624 160.547 157.576 160.547 158.84C160.563 159.88 160.347 160.696 159.899 161.288C159.451 161.864 158.739 162.152 157.763 162.152H150.947V160.568H157.235C157.763 160.568 158.107 160.392 158.267 160.04C158.427 159.672 158.507 159.272 158.507 158.84C158.491 158.088 158.267 157.552 157.835 157.232C157.403 156.912 156.667 156.752 155.627 156.752C154.779 156.752 154.107 156.88 153.611 157.136C153.131 157.376 152.787 157.808 152.579 158.432C152.387 159.04 152.291 159.896 152.291 161C152.291 162.248 152.411 163.2 152.651 163.856C152.907 164.512 153.307 164.96 153.851 165.2C154.395 165.44 155.115 165.56 156.011 165.56C156.635 165.56 157.315 165.536 158.051 165.488C158.803 165.424 159.475 165.352 160.067 165.272L160.283 166.64C159.915 166.784 159.459 166.904 158.915 167C158.387 167.096 157.835 167.168 157.259 167.216C156.699 167.264 156.195 167.288 155.747 167.288C154.403 167.288 153.323 167.088 152.507 166.688C151.691 166.272 151.091 165.616 150.707 164.72C150.339 163.808 150.155 162.608 150.155 161.12C150.155 159.584 150.339 158.376 150.707 157.496C151.091 156.6 151.675 155.968 152.459 155.6C153.259 155.216 154.283 155.024 155.531 155.024Z" fill="white"/>
</svg>
